<svg width="124" height="20" viewBox="0 0 124 20" fill="none" xmlns="http://www.w3.org/2000/svg">
<path d="M9.22815 2.19425C9.49482 1.49091 10.504 1.49091 10.7715 2.19425L12.4965 6.97258C12.6173 7.28925 12.9248 7.50008 13.2682 7.50008H17.5073C18.2907 7.50008 18.6323 8.47508 18.0165 8.95258L14.9998 11.6667C14.8647 11.7706 14.7659 11.9146 14.7177 12.0781C14.6695 12.2416 14.6743 12.4162 14.7315 12.5767L15.8332 17.2459C16.1015 17.9959 15.2332 18.6401 14.5765 18.1784L10.479 15.5784C10.3387 15.4798 10.1713 15.4269 9.99982 15.4269C9.82831 15.4269 9.66098 15.4798 9.52065 15.5784L5.42315 18.1784C4.76732 18.6401 3.89815 17.9951 4.16649 17.2459L5.26815 12.5767C5.3253 12.4162 5.33012 12.2416 5.28191 12.0781C5.2337 11.9146 5.13495 11.7706 4.99982 11.6667L1.98315 8.95258C1.36649 8.47508 1.70982 7.50008 2.49149 7.50008H6.73065C6.89756 7.50064 7.06071 7.4505 7.1985 7.35631C7.33629 7.26211 7.44224 7.1283 7.50232 6.97258L9.22732 2.19425H9.22815Z" fill="#F7AB3A" stroke="#F7AB3A" stroke-width="0.5" stroke-linecap="round" stroke-linejoin="round"/>
<path d="M35.2282 2.19425C35.4948 1.49091 36.504 1.49091 36.7715 2.19425L38.4965 6.97258C38.6173 7.28925 38.9248 7.50008 39.2682 7.50008H43.5073C44.2907 7.50008 44.6323 8.47508 44.0165 8.95258L40.9998 11.6667C40.8647 11.7706 40.7659 11.9146 40.7177 12.0781C40.6695 12.2416 40.6743 12.4162 40.7315 12.5767L41.8332 17.2459C42.1015 17.9959 41.2332 18.6401 40.5765 18.1784L36.479 15.5784C36.3387 15.4798 36.1713 15.4269 35.9998 15.4269C35.8283 15.4269 35.661 15.4798 35.5207 15.5784L31.4232 18.1784C30.7673 18.6401 29.8982 17.9951 30.1665 17.2459L31.2682 12.5767C31.3253 12.4162 31.3301 12.2416 31.2819 12.0781C31.2337 11.9146 31.135 11.7706 30.9998 11.6667L27.9832 8.95258C27.3665 8.47508 27.7098 7.50008 28.4915 7.50008H32.7307C32.8976 7.50064 33.0607 7.4505 33.1985 7.35631C33.3363 7.26211 33.4422 7.1283 33.5023 6.97258L35.2273 2.19425H35.2282Z" fill="#F7AB3A"/>
<path d="M61.2282 2.19425C61.4948 1.49091 62.504 1.49091 62.7715 2.19425L64.4965 6.97258C64.6173 7.28925 64.9248 7.50008 65.2682 7.50008H69.5073C70.2907 7.50008 70.6323 8.47508 70.0165 8.95258L66.9998 11.6667C66.8647 11.7706 66.7659 11.9146 66.7177 12.0781C66.6695 12.2416 66.6743 12.4162 66.7315 12.5767L67.8332 17.2459C68.1015 17.9959 67.2332 18.6401 66.5765 18.1784L62.479 15.5784C62.3387 15.4798 62.1713 15.4269 61.9998 15.4269C61.8283 15.4269 61.661 15.4798 61.5207 15.5784L57.4232 18.1784C56.7673 18.6401 55.8982 17.9951 56.1665 17.2459L57.2682 12.5767C57.3253 12.4162 57.3301 12.2416 57.2819 12.0781C57.2337 11.9146 57.135 11.7706 56.9998 11.6667L53.9832 8.95258C53.3665 8.47508 53.7098 7.50008 54.4915 7.50008H58.7307C58.8976 7.50064 59.0607 7.4505 59.1985 7.35631C59.3363 7.26211 59.4422 7.1283 59.5023 6.97258L61.2273 2.19425H61.2282Z" fill="#F7AB3A"/>
<path d="M87.2282 2.19425C87.4948 1.49091 88.504 1.49091 88.7715 2.19425L90.4965 6.97258C90.6173 7.28925 90.9248 7.50008 91.2682 7.50008H95.5073C96.2907 7.50008 96.6323 8.47508 96.0165 8.95258L92.9998 11.6667C92.8647 11.7706 92.7659 11.9146 92.7177 12.0781C92.6695 12.2416 92.6743 12.4162 92.7315 12.5767L93.8332 17.2459C94.1015 17.9959 93.2332 18.6401 92.5765 18.1784L88.479 15.5784C88.3387 15.4798 88.1713 15.4269 87.9998 15.4269C87.8283 15.4269 87.661 15.4798 87.5207 15.5784L83.4232 18.1784C82.7673 18.6401 81.8982 17.9951 82.1665 17.2459L83.2682 12.5767C83.3253 12.4162 83.3301 12.2416 83.2819 12.0781C83.2337 11.9146 83.135 11.7706 82.9998 11.6667L79.9832 8.95258C79.3665 8.47508 79.7098 7.50008 80.4915 7.50008H84.7307C84.8976 7.50064 85.0607 7.4505 85.1985 7.35631C85.3363 7.26211 85.4422 7.1283 85.5023 6.97258L87.2273 2.19425H87.2282Z" stroke="#C4CDD5" stroke-width="0.5" stroke-linecap="round" stroke-linejoin="round"/>
<path d="M113.228 2.19425C113.495 1.49091 114.504 1.49091 114.771 2.19425L116.496 6.97258C116.617 7.28925 116.925 7.50008 117.268 7.50008H121.507C122.291 7.50008 122.632 8.47508 122.016 8.95258L119 11.6667C118.865 11.7706 118.766 11.9146 118.718 12.0781C118.67 12.2416 118.674 12.4162 118.731 12.5767L119.833 17.2459C120.101 17.9959 119.233 18.6401 118.576 18.1784L114.479 15.5784C114.339 15.4798 114.171 15.4269 114 15.4269C113.828 15.4269 113.661 15.4798 113.521 15.5784L109.423 18.1784C108.767 18.6401 107.898 17.9951 108.166 17.2459L109.268 12.5767C109.325 12.4162 109.33 12.2416 109.282 12.0781C109.234 11.9146 109.135 11.7706 109 11.6667L105.983 8.95258C105.366 8.47508 105.71 7.50008 106.491 7.50008H110.731C110.898 7.50064 111.061 7.4505 111.199 7.35631C111.336 7.26211 111.442 7.1283 111.502 6.97258L113.227 2.19425H113.228Z" stroke="#C4CDD5" stroke-width="0.5" stroke-linecap="round" stroke-linejoin="round"/>
</svg>
