<svg width="24" height="24" viewBox="0 0 24 24" fill="none" xmlns="http://www.w3.org/2000/svg">
<path d="M20.9448 10.174C20.8883 10.0659 20.7763 9.9982 20.6544 9.99829H3.3485C3.22658 9.99829 3.11478 10.066 3.05825 10.174L0.89319 14.2962C0.808909 14.4566 0.870596 14.6549 1.03105 14.7393C1.07811 14.764 1.13047 14.7769 1.18363 14.7769H3.02113V22.0144C3.02122 22.1956 3.16808 22.3424 3.34925 22.3425H20.6542C20.8354 22.3425 20.9823 22.1956 20.9823 22.0144V14.7769H22.8198C23.001 14.7769 23.1479 14.63 23.1479 14.4487C23.1479 14.3956 23.135 14.3432 23.1102 14.2962L20.9448 10.174ZM3.54688 10.6545H11.4573L9.63856 14.1207H1.72606L3.54688 10.6545ZM3.67606 14.7769H9.83544C9.95745 14.7769 10.0694 14.7093 10.1261 14.6012L11.6726 11.6575V21.6874H3.67606V14.7769ZM20.3261 21.6869H12.3292V11.6569L13.8761 14.6012C13.9326 14.7093 14.0445 14.777 14.1665 14.7769H20.3261V21.6869ZM14.3636 14.1207L12.5448 10.6545H20.4562L22.2761 14.1207H14.3636Z" fill="#4295E4" stroke="#4295E4" stroke-width="0.5"/>
<path d="M12.0024 8.97436C14.0231 8.97436 15.6611 7.33631 15.6611 5.31567C15.6611 3.29503 14.0231 1.65698 12.0024 1.65698C9.9818 1.65698 8.34375 3.29503 8.34375 5.31567V5.31586C8.34605 7.33551 9.98278 8.9722 12.0024 8.97436ZM12.0024 2.31323C13.6606 2.31323 15.0049 3.65747 15.0049 5.31567C15.0049 6.97387 13.6606 8.31811 12.0024 8.31811C10.3443 8.31811 9.00009 6.97397 9 5.31586C9.00187 3.6584 10.345 2.3152 12.0024 2.31323Z" fill="#4295E4" stroke="#4295E4" stroke-width="0.5"/>
<path d="M12.3328 6.22933H10.8555C10.6742 6.22933 10.5273 6.37623 10.5273 6.55745C10.5273 6.73867 10.6742 6.88558 10.8555 6.88558H12.332C13.0791 6.87676 13.6776 6.26401 13.6688 5.51692C13.6601 4.78225 13.0667 4.18876 12.332 4.18014H11.6477L11.8757 3.95214C12.0062 3.82642 12.01 3.61872 11.8843 3.48817C11.7586 3.35767 11.5509 3.35378 11.4204 3.4795C11.4176 3.48212 11.415 3.4848 11.4123 3.48751L10.6248 4.27501C10.4966 4.40298 10.4965 4.61064 10.6245 4.7388C10.6246 4.73889 10.6247 4.73898 10.6248 4.73908L11.4123 5.52658C11.5405 5.65473 11.7482 5.65473 11.8764 5.52658C12.0045 5.39842 12.0045 5.19067 11.8764 5.06251L11.6482 4.83433H12.3327C12.7174 4.84065 13.0241 5.15758 13.0178 5.54223C13.0116 5.91798 12.7085 6.22112 12.3327 6.22726L12.3328 6.22933Z" fill="#4295E4" stroke="#4295E4" stroke-width="0.5"/>
</svg>
